HIERARCHY
ROOT Hips
{
	OFFSET 0.000000 0.000000 0.000000
	CHANNELS 6 Xposition Yposition Zposition Zrotation Yrotation Xrotation 
	JOINT LHipJoint
	{
		OFFSET 0.000000 0.000000 0.000000
		CHANNELS 3 Zrotation Yrotation Xrotation
		JOINT LeftUpLeg
		{
			OFFSET 1.363060 -1.794630 0.839290
			CHANNELS 3 Zrotation Yrotation Xrotation
			JOINT LeftLeg
			{
				OFFSET 2.448110 -6.726130 0.000000
				CHANNELS 3 Zrotation Yrotation Xrotation
				JOINT LeftFoot
				{
					OFFSET 2.562200 -7.039590 0.000000
					CHANNELS 3 Zrotation Yrotation Xrotation
					JOINT LeftToeBase
					{
						OFFSET 0.157640 -0.433110 2.322550
						CHANNELS 3 Zrotation Yrotation Xrotation
						End Site
						{
							OFFSET 0.000000 0.000000 0.000000
						}
					}
				}
			}
		}
	}
	JOINT RHipJoint
	{
		OFFSET 0.000000 0.000000 0.000000
		CHANNELS 3 Zrotation Yrotation Xrotation
		JOINT RightUpLeg
		{
			OFFSET -1.305520 -1.794630 0.839290
			CHANNELS 3 Zrotation Yrotation Xrotation
			JOINT RightLeg
			{
				OFFSET -2.542530 -6.985550 0.000000
				CHANNELS 3 Zrotation Yrotation Xrotation
				JOINT RightFoot
				{
					OFFSET -2.568260 -7.056230 0.000000
					CHANNELS 3 Zrotation Yrotation Xrotation
					JOINT RightToeBase
					{
						OFFSET -0.164730 -0.452590 2.363150
						CHANNELS 3 Zrotation Yrotation Xrotation
						End Site
						{
							OFFSET 0.000000 0.000000 0.000000
						}
					}
				}
			}
		}
	}
	JOINT LowerBack
	{
		OFFSET 0.000000 0.000000 0.000000
		CHANNELS 3 Zrotation Yrotation Xrotation
		JOINT Spine
		{
			OFFSET 0.028270 2.035590 -0.193380
			CHANNELS 3 Zrotation Yrotation Xrotation
			JOINT Spine1
			{
				OFFSET 0.056720 2.048850 -0.042750
				CHANNELS 3 Zrotation Yrotation Xrotation
				JOINT Neck
				{
					OFFSET 0.000000 0.000000 0.000000
					CHANNELS 3 Zrotation Yrotation Xrotation
					JOINT Neck1
					{
						OFFSET -0.054170 1.746240 0.172020
						CHANNELS 3 Zrotation Yrotation Xrotation
						JOINT Head
						{
							OFFSET 0.104070 1.761360 -0.123970
							CHANNELS 3 Zrotation Yrotation Xrotation
							End Site
							{
								OFFSET 0.000000 0.000000 0.000000
							}
						}
					}
				}
				JOINT LeftShoulder
				{
					OFFSET 0.000000 0.000000 0.000000
					CHANNELS 3 Zrotation Yrotation Xrotation
					JOINT LeftArm
					{
						OFFSET 3.362410 1.200890 -0.311210
						CHANNELS 3 Zrotation Yrotation Xrotation
						JOINT LeftForeArm
						{
							OFFSET 4.983000 -0.000000 -0.000000
							CHANNELS 3 Zrotation Yrotation Xrotation
							JOINT LeftHand
							{
								OFFSET 3.483560 -0.000000 -0.000000
								CHANNELS 3 Zrotation Yrotation Xrotation
								JOINT LeftFingerBase
								{
									OFFSET 0.000000 0.000000 0.000000
									CHANNELS 3 Zrotation Yrotation Xrotation
									JOINT LeftHandIndex1
									{
										OFFSET 0.715260 -0.000000 -0.000000
										CHANNELS 3 Zrotation Yrotation Xrotation
										End Site
										{
											OFFSET 0.000000 0.000000 0.000000
										}
									}
								}
								JOINT LThumb
								{
									OFFSET 0.000000 0.000000 0.000000
									CHANNELS 3 Zrotation Yrotation Xrotation
									End Site
									{
										OFFSET 0.000000 0.000000 0.000000
									}
								}
							}
						}
					}
				}
				JOINT RightShoulder
				{
					OFFSET 0.000000 0.000000 0.000000
					CHANNELS 3 Zrotation Yrotation Xrotation
					JOINT RightArm
					{
						OFFSET -3.136600 1.374050 -0.404650
						CHANNELS 3 Zrotation Yrotation Xrotation
						JOINT RightForeArm
						{
							OFFSET -5.241900 -0.000000 -0.000000
							CHANNELS 3 Zrotation Yrotation Xrotation
							JOINT RightHand
							{
								OFFSET -3.444170 -0.000000 -0.000000
								CHANNELS 3 Zrotation Yrotation Xrotation
								JOINT RightFingerBase
								{
									OFFSET 0.000000 0.000000 0.000000
									CHANNELS 3 Zrotation Yrotation Xrotation
									JOINT RightHandIndex1
									{
										OFFSET -0.622530 -0.000000 -0.000000
										CHANNELS 3 Zrotation Yrotation Xrotation
										End Site
										{
											OFFSET 0.000000 0.000000 0.000000
										}
									}
								}
								JOINT RThumb
								{
									OFFSET 0.000000 0.000000 0.000000
									CHANNELS 3 Zrotation Yrotation Xrotation
									End Site
									{
										OFFSET 0.000000 0.000000 0.000000
									}
								}
							}
						}
					}
				}
			}
		}
	}
}
MOTION
Frames: 5
Frame Time: 0.008333
0.479257 24.576407 -5.922440 -1.664503 -0.839564 9.926993 1.075180 -0.327858 -0.535142 -14.892190 3.741364 -34.790849 10.326203 18.134625 59.945766 0.651177 8.058041 24.640678 0.000281 0.040564 0.111462 -2.926770 -0.260226 -0.015400 21.498312 1.718599 -33.886411 -14.936413 -19.972654 73.844553 -0.501898 -10.534901 22.758670 -1.645556 -8.084735 22.971976 -1.219027 -0.344748 5.375568 1.371689 -0.401020 -2.361837 2.465384 -0.537875 2.702744 -4.353415 -0.229790 -5.566678 3.888065 -0.056913 26.996189 1.000818 0.411030 9.392437 9.116714 4.890858 0.234216 -83.034831 -5.361183 37.008793 7.803315 -17.805255 -1.319293 0.034242 -0.645733 -18.678620 22.412032 -4.457762 -1.570790 -7.125000 0.000000 0.000000 -3.056324 25.886221 1.417114 -8.154546 -4.068118 -0.010045 86.150014 4.024518 20.515289 -11.368292 23.813792 -2.816209 0.718791 0.765869 36.873342 -19.421516 -21.633377 7.807112 7.125000 0.000000 0.000000 9.919072 -53.667574 -2.130284
0.479173 24.596374 -5.761012 -1.462648 -0.896290 9.563478 1.148662 -0.370450 -0.614004 -15.127133 3.584178 -36.149496 10.577748 18.304859 60.779990 0.574777 7.971796 24.016590 0.004239 0.408292 1.121918 -2.944134 -0.219003 -0.024051 21.342166 1.808716 -35.267533 -14.778022 -19.982594 73.476091 -0.523453 -9.744314 22.387889 -1.553700 -7.866746 22.310239 -1.504679 -0.302879 6.763684 1.356235 -0.344222 -2.278360 2.567529 -0.520403 2.356966 -4.353396 -0.311038 -5.874631 3.857389 -0.135122 26.910500 0.975418 0.370109 9.488868 9.113894 4.887099 0.244587 -84.120235 -5.161800 36.365368 7.412996 -17.065610 -1.183458 0.024052 -0.642243 -18.168002 22.568795 -4.627299 -1.655701 -7.125000 0.000000 0.000000 -2.934387 25.693598 1.373678 -8.148733 -4.053409 0.002179 86.839424 3.702667 20.196519 -11.004126 23.219073 -2.647043 0.728775 0.756625 37.698291 -19.417165 -21.575604 7.786232 7.125000 0.000000 0.000000 9.902234 -53.608349 -2.112248
0.477915 24.587581 -5.594919 -1.240857 -0.923297 9.217214 1.202654 -0.413749 -0.685659 -15.375086 3.408034 -37.391976 10.703675 18.408032 61.209080 0.503845 7.970528 23.484187 0.015351 0.794172 2.182622 -2.944363 -0.176012 -0.040707 21.193814 1.791532 -36.513319 -14.423287 -19.928952 72.520109 -0.534583 -9.041775 22.007653 -1.439869 -7.585584 21.462496 -1.827379 -0.266880 8.056372 1.347725 -0.307059 -2.192712 2.713319 -0.516513 2.064086 -4.373727 -0.383929 -6.153262 3.803715 -0.191584 26.820418 0.945094 0.336036 9.567921 9.112441 4.888327 0.258707 -85.177268 -4.921417 35.813016 7.059669 -16.390371 -1.065988 0.014972 -0.638674 -17.553722 22.649808 -4.716178 -1.701294 -7.125000 0.000000 0.000000 -2.872104 25.590477 1.351404 -8.141422 -4.045602 0.014780 87.469248 3.344552 20.003675 -10.719694 22.742138 -2.515022 0.734523 0.752516 38.243780 -19.377199 -21.536252 7.755900 7.125000 0.000000 0.000000 9.930769 -53.562063 -2.107110
0.476778 24.553993 -5.423417 -1.053505 -0.904781 8.954980 1.237374 -0.461228 -0.754054 -15.589633 3.192189 -38.539247 10.668997 18.431408 61.134054 0.441824 8.013911 23.046956 0.029694 1.109736 3.050897 -2.929114 -0.128971 -0.064009 21.102961 1.708966 -37.653588 -13.863549 -19.802191 70.955335 -0.539938 -8.364483 21.599505 -1.313582 -7.258831 20.484767 -2.104094 -0.251431 9.182907 1.348725 -0.301115 -2.109139 2.865000 -0.529446 1.846730 -4.401619 -0.440082 -6.400413 3.739539 -0.222191 26.711339 0.913881 0.312431 9.620514 9.112763 4.896499 0.276353 -86.195412 -4.645104 35.281006 6.740422 -15.776494 -0.965692 0.007994 -0.634962 -16.858652 22.599402 -4.684354 -1.685336 -7.125000 0.000000 0.000000 -2.911680 25.622301 1.367854 -8.134923 -4.047267 0.028527 88.084865 2.986555 19.808567 -10.496002 22.359648 -2.411337 0.735538 0.754369 38.509958 -19.287583 -21.544725 7.719328 7.125000 0.000000 0.000000 10.031151 -53.556121 -2.127271
0.477020 24.496114 -5.246121 -0.938830 -0.850306 8.821517 1.252815 -0.515037 -0.820689 -15.740283 2.943196 -39.597292 10.445240 18.359658 60.468845 0.392638 8.075922 22.718850 0.038943 1.273431 3.501523 -2.898940 -0.076025 -0.091279 21.091850 1.618483 -38.699257 -13.100660 -19.586416 68.777933 -0.543178 -7.711266 21.179336 -1.190055 -6.921676 19.483840 -2.266716 -0.255843 10.114762 1.357484 -0.316568 -2.038275 2.977989 -0.550198 1.683229 -4.404354 -0.475160 -6.620606 3.659358 -0.225285 26.609499 0.875486 0.302557 9.661105 9.115468 4.911953 0.294618 -87.163178 -4.314115 34.727053 6.456132 -15.223998 -0.881367 0.003994 -0.631168 -16.180557 22.418346 -4.523842 -1.605279 -7.125000 0.000000 0.000000 -3.052744 25.796962 1.421889 -8.129340 -4.056170 0.042190 88.701595 2.633791 19.523508 -10.299317 22.022939 -2.322063 0.734116 0.758381 38.673633 -19.166498 -21.567019 7.673101 7.125000 0.000000 0.000000 10.170159 -53.557959 -2.157698
